<svg width="15" height="16" viewBox="0 0 15 16" fill="none" xmlns="http://www.w3.org/2000/svg">
<path d="M13.5938 7.66351H11.25V5.47394C11.25 4.26625 12.0908 3.28436 13.125 3.28436H13.3594C13.749 3.28436 14.0625 2.91829 14.0625 2.46327V0.821091C14.0625 0.36607 13.749 0 13.3594 0H13.125C10.5352 0 8.4375 2.44959 8.4375 5.47394V13.6848C8.4375 14.5915 9.06738 15.327 9.84375 15.327H13.5938C14.3701 15.327 15 14.5915 15 13.6848V9.30569C15 8.39907 14.3701 7.66351 13.5938 7.66351ZM5.15625 7.66351H2.8125V5.47394C2.8125 4.26625 3.65332 3.28436 4.6875 3.28436H4.92188C5.31152 3.28436 5.625 2.91829 5.625 2.46327V0.821091C5.625 0.36607 5.31152 0 4.92188 0H4.6875C2.09766 0 0 2.44959 0 5.47394V13.6848C0 14.5915 0.629883 15.327 1.40625 15.327H5.15625C5.93262 15.327 6.5625 14.5915 6.5625 13.6848V9.30569C6.5625 8.39907 5.93262 7.66351 5.15625 7.66351Z" fill="#787878"/>
</svg>
